<svg width="31" height="30" viewBox="0 0 31 30" fill="none" xmlns="http://www.w3.org/2000/svg">
<mask id="mask0_540_6190" style="mask-type:luminance" maskUnits="userSpaceOnUse" x="0" y="0" width="31" height="30">
<path d="M0.0010891 0H30.6523V30H0.0010891V0Z" fill="white"/>
</mask>
<g mask="url(#mask0_540_6190)">
<path d="M6.86197 16.0113L1.37219 16.0112C0.6142 16.0112 -0.000247002 16.6256 -0.000247002 17.3836V28.5918C-0.000247002 29.3498 0.6142 29.9644 1.37216 29.9644H6.86194C7.61993 29.9644 8.23438 29.3498 8.23438 28.5919V17.3837C8.23438 16.6257 7.61993 16.0113 6.86197 16.0113Z" fill="#141414"/>
<path d="M20.5671 0.95987C19.9525 0.345275 19.1189 0 18.2498 0H6.70796C6.01254 0 5.64741 0.825293 6.11514 1.33991L15.712 11.8985C16.0166 12.2336 16.1854 12.6702 16.1854 13.1231V24.3216V27.3851V28.6501C16.1854 29.3957 16.7898 30 17.5354 30H29.3024C30.0479 30 30.6523 29.3957 30.6523 28.6501V11.9957C30.6523 11.5334 30.4744 11.0887 30.1555 10.754L26.0013 6.39407L20.5671 0.95987Z" fill="#141414"/>
</g>
</svg>
